<?xml version="1.0" encoding="UTF-8"?>
<svg id="Calque_1" data-name="Calque 1" xmlns="http://www.w3.org/2000/svg" viewBox="0 0 78.67 84.32">
  <defs>
    <style>
      .cls-1 {
        fill: #000;
        stroke-width: 0px;
      }
    </style>
  </defs>
  <path class="cls-1" d="M20.3,41.08c0,11.55,9.37,20.92,20.92,20.92,11.55,0,20.92-9.37,20.92-20.92s-9.37-20.92-20.92-20.92c-11.55,0-20.92,9.37-20.92,20.92Z"/>
  <path class="cls-1" d="M65.36,8.69l6.26-7.36-1.12-1.31-6.46,7.6C57.29,2.45,49.03,0,41.1,0,23.11,0,3.53,12.57,3.53,40.91v2.5c0,11.11,3,19.79,7.74,26.24L0,82.9l1.12,1.32,11.21-13.18c7.38,9.05,18.33,13.28,28.76,13.28,17.99,0,37.56-12.58,37.56-40.92v-2.5c0-14.99-5.48-25.57-13.31-32.21ZM64.11,19.35c14.9,13.23,13.08,37.27-3.43,48.41-5.63,3.8-12.39,6-19.57,6-4.32,0-8.49-.8-12.36-2.26C3.59,61.97.81,28.03,24.3,14.93c5-2.79,10.73-4.37,16.8-4.37,8.77,0,16.85,3.32,23,8.79Z"/>
</svg>