<?xml version="1.0" encoding="UTF-8"?>
<svg id="Calque_1" data-name="Calque 1" xmlns="http://www.w3.org/2000/svg" viewBox="0 0 52.37 54.16">
    <defs>
        <style>
            .cls-1 {
                fill: #393d98;
            }

            .cls-1,
            .cls-2 {
                stroke-width: 0px;
            }

            .cls-2 {
                fill: #fff;
            }
        </style>
    </defs>
    <rect class="cls-1" width="52.37" height="54.16" rx="7.81" ry="7.81" />
    <path class="cls-2"
        d="M41.68,28.1c-.02.21-.04.42-.06.63-.31,3.55-1.67,6.65-4.08,9.27-1.75,1.91-3.87,3.28-6.32,4.12-.14.05-.3.07-.44.06-.45-.03-.72-.32-.72-.77,0-.74.01-1.47.01-2.21,0-.84.02-1.68-.02-2.51-.03-.78-.26-1.52-.77-2.14-.07-.08-.14-.15-.23-.25.29-.04.57-.08.85-.12,1.02-.17,2.01-.44,2.92-.93,1.45-.77,2.38-1.96,2.86-3.52.4-1.3.52-2.63.36-3.98-.14-1.2-.63-2.25-1.43-3.16-.07-.08-.08-.15-.05-.25.37-1.1.33-2.2.02-3.3-.05-.18-.12-.36-.18-.55-.03-.1-.09-.14-.2-.15-.51-.04-1,.07-1.48.24-.89.3-1.7.76-2.48,1.28-.1.07-.2.09-.32.06-1.34-.36-2.7-.51-4.09-.48-1.12.03-2.22.17-3.3.47-.14.04-.24.02-.36-.06-.81-.54-1.66-1.01-2.6-1.31-.43-.14-.88-.23-1.34-.2-.12,0-.18.05-.22.16-.44,1.21-.57,2.43-.2,3.68.07.22.05.36-.1.54-.92,1.1-1.37,2.38-1.38,3.81-.02,1.14.1,2.27.47,3.35.59,1.76,1.76,2.98,3.47,3.68.93.38,1.89.58,2.88.7.06,0,.12.02.18.03,0,.02,0,.04-.01.04-.53.52-.79,1.17-.91,1.89-.02.1-.05.16-.15.2-.78.32-1.59.46-2.42.25-.83-.22-1.43-.74-1.88-1.46-.32-.51-.7-.97-1.2-1.31-.51-.34-1.06-.48-1.67-.37-.05,0-.1.02-.14.04-.18.08-.23.21-.12.36.12.15.25.32.41.41.95.55,1.45,1.45,1.85,2.4.42.99,1.14,1.56,2.15,1.81.87.22,1.74.17,2.61.05.14-.02.28-.04.44-.07,0,.06,0,.12.01.18,0,.86,0,1.73.02,2.59.02.71-.54,1.01-1.14.81-1.43-.47-2.76-1.15-3.98-2.03-3.19-2.3-5.26-5.37-6.15-9.21-.41-1.74-.49-3.51-.27-5.29.38-3.13,1.6-5.9,3.67-8.28,2.17-2.5,4.88-4.15,8.11-4.93.92-.22,1.85-.36,2.79-.4.07,0,.14-.02.21-.03.4,0,.81,0,1.21,0,.08,0,.16.02.24.03,1.09.05,2.15.22,3.2.51,3.27.9,5.97,2.67,8.08,5.32,1.95,2.45,3.05,5.24,3.31,8.36.02.22.04.45.06.67v1.24Z" />
</svg>