<?xml version="1.0" encoding="UTF-8"?>
<svg id="Calque_1" data-name="Calque 1" xmlns="http://www.w3.org/2000/svg" viewBox="0 0 630.35 90.29">
  <defs>
    <style>
      .cls-1 {
        fill: #ffeeef;
        stroke-width: 0px;
      }
    </style>
  </defs>
  <g>
    <path class="cls-1" d="M38.17,10.63l11.2.91v35.31h-28.8V11.54l11.2-.91v-1.6H0v1.6s5.26.11,6.74.57c2.63.69,3.54,2.29,3.89,4.46.34,1.49.34,5.37.34,8.34v52c0,2.17,0,4.91-.34,6.4-.34,2.17-1.26,3.77-3.89,4.46-1.49.46-6.74.57-6.74.57v1.6h31.77v-1.6l-11.2-.91v-37.83h28.8v37.83l-11.2.91v1.6h31.89v-1.6s-5.26-.11-6.74-.57c-2.74-.69-3.54-2.29-3.89-4.46-.34-1.49-.34-4.23-.46-6.4V24c.12-2.97.12-6.86.46-8.34.34-2.17,1.14-3.77,3.89-4.46,1.49-.46,6.74-.57,6.74-.57v-1.6h-31.89v1.6Z"/>
    <path class="cls-1" d="M241.62,45.37v-1.71h-24.69l6.63-9.6-1.36-.92-28.92,35.45c-14.65-21.27-13.7-55.79,11.19-55.79,11.89,0,21.61,6.06,27.89,17.37h1.61V0h-1.61l-1.36,13.26s-6.75-6.17-17.14-6.17c-19.21,0-35.89,13.72-35.89,41.71,0,7.13,2.61,18.44,9.05,27.46-5.64,6.92-14.11,10.92-23.04,10.87l-9.55-.05c-15.66,0-7.88-31.31.34-56.22l.69-2.98c2.74-7.09,5.14-13.84,6.98-18.86l-10.18-.12s-7.32,20.01-12.46,38.41c-2.39,7.2-12.91,40.23-30.4,40.23-14.28,0,0-40.69,7.21-62.63,3.31-10.18-2.4-15.89-12-15.89h-22.52c-7.88-.12-12,3.31-8.91,10.75,6.28,14.28,20.91,48.91,21.6,50.52-.23.11-.23.68-.23,1.26,0,8.22,1.03,17.94,13.82,17.94,15.2,0,24.8-20.34,27.55-26.63-.92,4.01-1.38,7.44-1.38,9.95,0,8.22,2.51,16.23,12.46,16.23h18.01c8.67,0,16.91-3.81,22.52-10.42.22-.26.44-.52.66-.78,5.63,7.13,13.88,12.46,25.43,12.46,12.68,0,23.54-7.32,23.54-24.91,0-6.22-1.88-13.46-4.24-19.87.58-.01,1.16-.01,1.71-.01l6.98-.12ZM94.99,65.94c-3.89-9.26-13.83-33.03-19.43-45.26-1.71-3.77-2.06-6.06-.91-7.66,1.26-1.71,4.12-2.17,7.31-2.17h18.29c13.26.57,9.6,3.09,1.94,27.09-2.86,9.03-6.06,19.89-7.2,28ZM235.33,65.49c0,13.26-6.51,19.43-13.94,19.43-11.21,0-20.35-6.02-26.84-14.57,7.21-8.46,14.47-17,15.99-18.8,4.12-4.79,8.92-4.79,16.12-5.71.97-.14,2.61-.24,4.41-.29,2.09,5.95,4.27,13.52,4.27,19.95Z"/>
    <path class="cls-1" d="M316.73,9.03v1.6s5.26.11,6.74.57c2.63.69,3.54,2.29,3.89,4.46.34,1.49.34,4.23.34,6.4v53.94c0,2.17,0,4.91-.34,6.4-.34,2.17-1.26,3.77-3.89,4.46-1.49.46-6.74.57-6.74.57v1.6h37.83v-1.6l-17.26-1.26v-50.97h5.71c7.43,0,12.34,1.71,16.92,8,2.97,4,16.8,28.8,16.8,28.8l1.37-.8-26.06-48.34-1.49.69,4.23,9.83h-17.49V10.86h11.31c2.51,0,5.26.11,7.66.34,11.2.8,18.97,9.71,24.8,21.6l4.8,10.06,1.6-.8-15.77-33.03h-54.97Z"/>
    <path class="cls-1" d="M420.04,8.12c-18.51,0-31.43,15.89-31.43,40.8,0,19.31,13.6,41.03,36.69,41.03,18.63,0,32.8-16.92,32.8-41.03,0-19.66-14.29-40.8-38.06-40.8ZM430.89,85.14c-22.63,0-35.89-27.2-35.89-49.37,0-12.69,5.49-22.86,19.09-22.86,24.23,0,37.72,27.2,37.72,47.89,0,13.26-6.4,24.34-20.91,24.34Z"/>
    <path class="cls-1" d="M521.4,73.37c-2.29,12.46-7.43,13.03-14.51,13.49-6.97.57-26.51.34-27.2.34l.23-75.66,11.2-.91v-1.6h-31.89v1.6s5.26.11,6.74.57c2.74.69,3.54,2.29,3.89,4.46.34,1.49.34,4.23.46,6.4v53.94c-.11,2.17-.11,4.91-.46,6.4-.34,2.17-1.14,3.77-3.89,4.46-1.49.46-6.74.57-6.74.57v1.6h63.09l5.03-48.34h-1.6s-2.4,22.4-4.34,32.69Z"/>
    <path class="cls-1" d="M528.18,10.63s5.26.11,6.74.57c2.63.69,3.54,2.29,3.89,4.46.34,1.49.34,5.37.34,8.34v52c0,2.17,0,4.91-.34,6.4-.34,2.17-1.26,3.77-3.89,4.46-1.49.46-6.74.57-6.74.57v1.6h31.54v-1.6s-5.26-.11-6.74-.57c-2.63-.69-3.54-2.29-3.89-4.46-.34-1.49-.34-5.37-.34-8.34V24c0-2.97,0-6.86.34-8.34.34-2.17,1.26-3.77,3.89-4.46,1.49-.46,6.74-.57,6.74-.57v-1.6h-31.54v1.6Z"/>
    <path class="cls-1" d="M592.29,8.12c-18.51,0-31.43,15.89-31.43,40.8,0,19.31,13.6,41.03,36.69,41.03,18.63,0,32.8-16.92,32.8-41.03,0-19.66-14.29-40.8-38.06-40.8ZM603.15,85.14c-22.63,0-35.89-27.2-35.89-49.37,0-12.69,5.49-22.86,19.09-22.86,24.23,0,37.72,27.2,37.72,47.89,0,13.26-6.4,24.34-20.91,24.34Z"/>
  </g>
  <path class="cls-1" d="M270.09,47.04c0,6.09,4.94,11.02,11.02,11.02,6.09,0,11.02-4.94,11.02-11.02,0-6.09-4.94-11.02-11.02-11.02-6.09,0-11.02,4.94-11.02,11.02Z"/>
  <path class="cls-1" d="M305.25,14.66l6.26-7.36-1.12-1.31-6.46,7.6c-6.74-5.18-14.99-7.62-22.92-7.62-18,0-37.58,12.57-37.58,40.91v2.5c0,11.11,3,19.79,7.74,26.24l-11.27,13.26,1.12,1.32,11.21-13.18c7.38,9.05,18.33,13.28,28.76,13.28,17.99,0,37.56-12.58,37.56-40.92v-2.5c0-14.99-5.48-25.57-13.31-32.21ZM304,25.31c14.9,13.23,13.08,37.27-3.43,48.41-5.63,3.8-12.39,6-19.57,6-4.32,0-8.49-.8-12.36-2.26-25.15-9.53-27.93-43.47-4.44-56.57,5-2.79,10.73-4.37,16.8-4.37,8.77,0,16.85,3.32,23,8.79Z"/>
</svg>