<?xml version="1.0" encoding="UTF-8"?>
<svg id="Calque_1" data-name="Calque 1" xmlns="http://www.w3.org/2000/svg" viewBox="0 0 334.39 100.6">
    <defs>
        <style>
            .cls-1 {
                fill: #f1f1f1;
                stroke-width: 0px;
            }
        </style>
    </defs>
    <path class="cls-1"
        d="M18.98,98.08H0V.59h29.63l17.73,76.65L64.95.59h29.3v97.49h-18.98V32.14c0-1.9.02-4.55.07-7.97.04-3.42.07-6.05.07-7.9l-18.45,81.81h-19.78L18.85,16.27c0,1.85.02,4.49.07,7.9.04,3.42.07,6.07.07,7.97v65.94Z" />
    <path class="cls-1"
        d="M173.35,76.92c-.49,4.28-2.71,8.62-6.68,13.03-6.17,7.01-14.82,10.52-25.93,10.52-9.17,0-17.26-2.95-24.27-8.86-7.01-5.91-10.52-15.52-10.52-28.84,0-12.48,3.16-22.05,9.49-28.7,6.33-6.66,14.54-9.99,24.64-9.99,6,0,11.4,1.12,16.2,3.37,4.8,2.25,8.77,5.8,11.9,10.65,2.82,4.28,4.65,9.24,5.49,14.88.49,3.31.68,8.07.6,14.29h-49.34c.26,7.23,2.54,12.3,6.81,15.21,2.6,1.81,5.73,2.71,9.39,2.71,3.88,0,7.03-1.1,9.46-3.31,1.32-1.19,2.49-2.84,3.51-4.96h19.25ZM154.7,54.83c-.31-4.98-1.82-8.76-4.53-11.34s-6.07-3.87-10.09-3.87c-4.37,0-7.75,1.37-10.15,4.1-2.4,2.73-3.91,6.44-4.53,11.11h29.3Z" />
    <path class="cls-1"
        d="M223.21,43.39c-7.58,0-12.68,2.47-15.28,7.41-1.46,2.78-2.18,7.05-2.18,12.83v34.46h-18.98V25.99h17.99v12.57c2.91-4.81,5.45-8.09,7.61-9.85,3.53-2.95,8.11-4.43,13.76-4.43.35,0,.65.01.89.03.24.02.78.06,1.62.1v19.31c-1.19-.13-2.25-.22-3.17-.26-.93-.04-1.68-.07-2.25-.07Z" />
    <path class="cls-1"
        d="M302.05,51.85h-19.31c-.35-2.69-1.26-5.11-2.71-7.27-2.12-2.91-5.4-4.37-9.85-4.37-6.35,0-10.69,3.15-13.03,9.46-1.24,3.35-1.85,7.8-1.85,13.36s.62,9.55,1.85,12.76c2.25,6,6.48,8.99,12.7,8.99,4.41,0,7.54-1.19,9.39-3.57s2.98-5.47,3.37-9.26h19.25c-.44,5.73-2.51,11.16-6.22,16.27-5.91,8.25-14.66,12.37-26.26,12.37s-20.13-3.44-25.6-10.32c-5.47-6.88-8.2-15.81-8.2-26.79,0-12.39,3.02-22.02,9.06-28.9,6.04-6.88,14.37-10.32,25-10.32,9.04,0,16.43,2.03,22.19,6.08,5.75,4.06,9.16,11.22,10.22,21.49Z" />
    <path class="cls-1" d="M334.39,0v17.39h-19.11V0h19.11ZM334.39,25.99v72.09h-19.11V25.99h19.11Z" />
</svg>