<?xml version="1.0" encoding="UTF-8"?>
<svg id="Calque_1" data-name="Calque 1" xmlns="http://www.w3.org/2000/svg" viewBox="0 0 81.33 96">
  <defs>
    <style>
      .cls-1 {
        fill: #110e00;
        stroke-width: 0px;
      }
    </style>
  </defs>
  <g>
    <path class="cls-1" d="M30.61,32.44c0,1.85,1.71,1.64,1.71,3.07,0,.76-.72,1.2-1.45,1.2-.85,0-1.85-.07-2.72-.07s-1.94.07-2.82.07c-.69,0-1.43-.44-1.43-1.2,0-1.43,1.71-1.22,1.71-3.07v-6.79c0-1.89-1.57-1.5-1.57-2.79,0-.99.85-1.25,1.71-1.25.44,0,1.43.12,2.4.12.88,0,1.78-.12,2.24-.12.83,0,1.55.25,1.55,1.25,0,1.08-1.32.92-1.32,2.91,0,.46.21.69.6.69.65,0,2.1-1.45,2.1-2.26,0-.53-.39-.55-.39-1.32,0-1.08.67-1.27,1.71-1.27.65,0,1.29.12,1.98.12.51,0,1.11-.12,1.71-.12.92,0,1.75.25,1.75,1.27,0,1.8-2.05,1.36-2.7,1.94-.67.6-1.25,2.4-2.75,3.07,1.55.53,3,1.75,3.74,3.46.35.78.58,1.96,1.22,2.63.48.51,1.41.46,1.41,1.45,0,1.22-1.8,1.29-2.79,1.29-2.28,0-3.44-.62-4.11-1.73-1.13-1.89-.9-4.43-2.58-4.43-.55,0-.9.53-.9,1.08v.78Z"/>
    <path class="cls-1" d="M54.13,32.44c0,1.85,1.68,1.64,1.68,3.07,0,1.04-1.59,1.22-2.63,1.22-3.02,0-2.79-1.45-3.55-1.45-.97,0-1.52,1.45-5.01,1.45-2.58,0-4.15-1.82-4.15-4.43,0-3.74,2.98-4.5,6.49-4.69,1.13-.05,1.82-.39,1.82-1.64,0-.97-.42-1.94-1.55-1.94-2.12,0-2.42,3.3-4.36,3.3-1.38,0-1.59-.92-1.59-2.12,0-3.16,4.09-3.79,6.85-3.79,4.96,0,6,2.38,6,6.76v4.25ZM48.89,31.45c0-1.13-.37-1.75-1.25-1.75s-1.55.65-1.55,1.75.62,2.12,1.55,2.12,1.25-.95,1.25-2.12Z"/>
  </g>
  <g>
    <path class="cls-1" d="M33,47.65c0-1-.46-1.05-1.29-1.05s-1.43.05-1.43.98v.51c0,1.25.98,1.09.98,2.05,0,.51-.4.8-.88.8-.57,0-1.12-.05-1.71-.05s-1.29.05-1.88.05c-.46,0-.95-.29-.95-.8,0-.95,1.14-.8,1.14-2.05v-4.52c0-1.26-1.05-1-1.05-1.86,0-.66.57-.83,1.14-.83.29,0,.95.08,1.6.08.58,0,1.19-.08,1.49-.08.55,0,1.03.17,1.03.83,0,.86-.92.6-.92,1.86v.23c0,.89.58.91,1.43.91s1.29-.02,1.29-.83v-.31c0-1.26-.91-1-.91-1.86,0-.66.45-.83,1-.83.31,0,.91.08,1.57.08.55,0,1.23-.08,1.55-.08.54,0,1.14.17,1.14.83,0,.86-1.08.6-1.08,1.86v4.52c0,1.25,1.14,1.09,1.14,2.05,0,.51-.48.8-.94.8-.58,0-1.26-.05-1.82-.05-.6,0-1.2.05-1.77.05-.46,0-.89-.29-.89-.8,0-.95,1-.8,1-2.05v-.45Z"/>
    <path class="cls-1" d="M46.25,46.99c-.09-.25-.23-.37-.38-.37-.17,0-.34.12-.45.35l-1.55,3.25c-.23.49-.74.88-1.19.88-.65,0-1.11-.35-1.31-.88l-2.52-6.66c-.37-.92-1.17-1.05-1.17-1.69,0-.85.51-1,1.15-1,.48,0,1.17.09,1.63.09.32,0,.92-.08,1.35-.08.66,0,1.23.17,1.23,1,0,.58-.49.63-.49,1.03,0,.62.82,2.63,1.26,2.63.29,0,.97-1.25.97-1.95,0-1.14-.62-.98-.62-1.86,0-.62.43-.86.94-.86s.71.08,1.14.08c.37,0,.71-.06,1.14-.06.57,0,1.17.23,1.17,1,0,.58-.48.63-.48,1.03,0,.62.78,2.63,1.25,2.63s1.22-2.03,1.22-2.63c0-.45-.48-.45-.48-1.03,0-.83.6-1,1.09-1,.28,0,.46.06.83.06.32,0,.45-.06.82-.06.54,0,1.05.18,1.05,1,0,.75-1.14.75-1.49,1.68l-2.54,6.66c-.2.52-.62.88-1.08.88-.65,0-.98-.34-1.2-.88l-1.29-3.23Z"/>
  </g>
  <g>
    <path class="cls-1" d="M39.34,66.31c0,1.85,1.68,1.64,1.68,3.07,0,1.04-1.59,1.22-2.63,1.22-3.02,0-2.79-1.45-3.55-1.45-.97,0-1.52,1.45-5.01,1.45-2.58,0-4.15-1.82-4.15-4.43,0-3.74,2.98-4.5,6.49-4.69,1.13-.05,1.82-.39,1.82-1.64,0-.97-.42-1.94-1.55-1.94-2.12,0-2.42,3.3-4.36,3.3-1.38,0-1.59-.92-1.59-2.12,0-3.16,4.09-3.79,6.85-3.79,4.96,0,6,2.38,6,6.76v4.25ZM34.11,65.32c0-1.13-.37-1.75-1.25-1.75s-1.55.65-1.55,1.75.62,2.12,1.55,2.12,1.25-.95,1.25-2.12Z"/>
    <path class="cls-1" d="M47.51,70.67c-3.62,0-6.81-.83-6.81-4.73,0-.67.35-1.34,1.15-1.34.88,0,1.8,1.75,2.4,2.19.81.6,1.87.83,2.61.83.85,0,1.18-.39,1.18-.81,0-1.82-7.15-1.52-7.15-6.97,0-2.65,2.54-4.62,6.44-4.62,3.09,0,6.05.51,6.05,3.42,0,.85-.48,1.57-1.36,1.57-1.71,0-2.1-1.98-4.2-1.98-.6,0-1.11.23-1.11.67,0,1.34,2.95,1.22,5.54,2.84,1.25.78,1.78,1.71,1.78,3,0,3.58-3.21,5.93-6.51,5.93Z"/>
  </g>
  <path class="cls-1" d="M40.66,0C18.24,0,0,21.53,0,48s18.24,48,40.66,48,40.66-21.53,40.66-48S63.08,0,40.66,0ZM52.47,89.34c-1.77.73-3.55-1.06-2.8-2.83l.02-.05c1.14-2.71,1.95-5.55,2.41-8.45.16-1-.39-2.02-1.35-2.37-1.31-.49-2.68.36-2.88,1.67-.41,2.56-1.12,5.08-2.13,7.49-.95,2.26-2.72,6.91-5.07,6.91-20.06,0-36.37-19.61-36.37-43.71,0-16.75,7.88-31.33,19.43-38.66,1.81-1.15,4.03.71,3.22,2.69-.76,1.87-1.42,3.86-1.58,5.39-.12,1.17.7,2.29,1.88,2.42.08,0,.17.01.25.01,1.09,0,2.02-.82,2.13-1.93.33-3.2,1.52-6.37,3.35-8.91.87-1.21,1.87-2.26,2.97-3.13,1.33-1.06,3-1.6,4.7-1.61h.02c20.06,0,36.37,19.61,36.37,43.71,0,19.14-10.29,35.44-24.57,41.34Z"/>
</svg>