<?xml version="1.0" encoding="UTF-8"?>
<svg id="Calque_1" data-name="Calque 1" xmlns="http://www.w3.org/2000/svg" viewBox="0 0 52.45 96">
    <defs>
        <style>
            .cls-1 {
                fill: #110e00;
                stroke-width: 0px;
            }
        </style>
    </defs>
    <g>
        <g>
            <polygon class="cls-1"
                points="13.16 20.65 14.69 18.58 18.95 25.81 25.63 25.81 18.9 14.87 25.33 6.15 19.31 6.15 13.26 14.49 13.16 14.49 13.16 6.15 7.41 6.15 7.41 25.81 13.16 25.81 13.16 20.65" />
            <rect class="cls-1" x="26.99" y="6.15" width="5.74" height="19.66" />
        </g>
        <g>
            <polygon class="cls-1"
                points="13.16 46.27 13.25 46.27 20.21 56.49 24.94 56.49 24.94 36.83 19.2 36.83 19.2 46.88 19.1 46.88 12.2 36.83 7.41 36.83 7.41 56.49 13.16 56.49 13.16 46.27" />
            <polygon class="cls-1"
                points="41.44 41.41 41.44 36.83 27.65 36.83 27.65 56.49 41.44 56.49 41.44 51.91 33.39 51.91 33.39 48.79 38.22 48.79 38.22 44.54 33.39 44.54 33.39 41.41 41.44 41.41" />
        </g>
    </g>
    <rect class="cls-1" x="7.41" y="29.74" width="34.02" height="3.16" />
    <g>
        <polygon class="cls-1"
            points="18.47 78.38 18.37 78.38 14.05 66.68 7.41 66.68 7.41 86.34 12.43 86.34 12.43 74.95 12.51 74.95 16.88 86.34 19.96 86.34 24.32 74.95 24.41 74.95 24.41 86.34 29.42 86.34 29.42 66.68 22.79 66.68 18.47 78.38" />
        <path class="cls-1"
            d="M45.11,86.34h6.04l-6.38-19.66h-7.21l-6.38,19.66h6.04l1.02-3.91h5.85l1.02,3.91ZM39.3,78.36l1.81-6.99h.11l1.81,6.99h-3.74Z" />
    </g>
    <path class="cls-1"
        d="M51.15,64.04c-2.49,0-3.8-.53-4.96-.99-1.02-.41-1.91-.77-3.79-.77s-2.77.36-3.79.77c-1.16.47-2.47.99-4.96.99s-3.8-.53-4.95-.99c-1.02-.41-1.91-.77-3.79-.77s-2.77.36-3.79.77c-1.16.47-2.47.99-4.96.99s-3.8-.53-4.95-.99c-1.02-.41-1.91-.77-3.79-.77v-3.15c2.49,0,3.8.53,4.95.99,1.02.41,1.91.77,3.79.77s2.77-.36,3.79-.77c1.16-.47,2.47-.99,4.96-.99s3.8.53,4.95.99c1.02.41,1.91.77,3.79.77s2.77-.36,3.79-.77c1.16-.47,2.47-.99,4.96-.99s3.8.53,4.96.99c1.02.41,1.91.77,3.79.77v3.15Z" />
    <path class="cls-1"
        d="M52.45,96H4.54v-1.58c0-1.65-1.34-2.99-2.98-2.99H0V0h3.13v88.48c2.11.56,3.78,2.24,4.34,4.37h44.98v3.15Z" />
</svg>